<svg version="1.1" xmlns="http://www.w3.org/2000/svg" viewBox="0 0 614.4935948337221 753.853204462765" width="614.4935948337221" height="753.853204462765" filter="invert(93%) hue-rotate(180deg)">
  <!-- svg-source:excalidraw -->
  
  <defs>
    <style class="style-fonts">
      @font-face {
        font-family: "Virgil";
        src: url("https://excalidraw.com/Virgil.woff2");
      }
      @font-face {
        font-family: "Cascadia";
        src: url("https://excalidraw.com/Cascadia.woff2");
      }
      @font-face {
        font-family: "Assistant";
        src: url("https://excalidraw.com/Assistant-Regular.woff2");
      }
    </style>
    
  </defs>
  <rect x="0" y="0" width="614.4935948337221" height="753.853204462765" fill="#ffffff"></rect><g stroke-linecap="round" transform="translate(10.805546876468611 10) rotate(0 131.3041408643586 53.1660938469182)"><path d="M6.42 6.91 C6.42 6.91, 6.42 6.91, 6.42 6.91 M6.42 6.91 C6.42 6.91, 6.42 6.91, 6.42 6.91 M0.65 25.74 C5.93 19.66, 11.22 13.58, 22.3 0.83 M0.65 25.74 C6.53 18.97, 12.41 12.21, 22.3 0.83 M0.78 37.78 C8.85 28.5, 16.91 19.22, 33.58 0.04 M0.78 37.78 C9.63 27.6, 18.47 17.43, 33.58 0.04 M0.91 49.82 C10.42 38.89, 19.92 27.96, 44.21 0.01 M0.91 49.82 C13.65 35.17, 26.39 20.52, 44.21 0.01 M1.05 61.86 C16.84 43.69, 32.63 25.53, 54.84 -0.02 M1.05 61.86 C13.93 47.05, 26.8 32.23, 54.84 -0.02 M1.18 73.9 C15.88 56.99, 30.58 40.08, 65.47 -0.06 M1.18 73.9 C24.46 47.13, 47.73 20.35, 65.47 -0.06 M0.66 86.7 C25.51 58.11, 50.35 29.53, 76.1 -0.09 M0.66 86.7 C28.44 54.74, 56.22 22.79, 76.1 -0.09 M3.42 95.72 C33.15 61.51, 62.89 27.31, 86.73 -0.13 M3.42 95.72 C28.5 66.86, 53.59 38, 86.73 -0.13 M8.8 101.72 C30.2 77.1, 51.6 52.48, 97.37 -0.16 M8.8 101.72 C29.05 78.43, 49.3 55.13, 97.37 -0.16 M16.15 105.46 C52.23 63.96, 88.31 22.45, 107.34 0.56 M16.15 105.46 C46.31 70.76, 76.48 36.06, 107.34 0.56 M26.12 106.18 C46.8 82.4, 67.47 58.61, 117.97 0.52 M26.12 106.18 C61.68 65.28, 97.23 24.38, 117.97 0.52 M36.09 106.9 C58.55 81.07, 81.01 55.24, 128.6 0.49 M36.09 106.9 C60.54 78.78, 84.98 50.66, 128.6 0.49 M46.73 106.87 C81.93 66.37, 117.13 25.87, 139.23 0.45 M46.73 106.87 C65.56 85.21, 84.39 63.54, 139.23 0.45 M57.36 106.83 C85.31 74.68, 113.25 42.53, 149.86 0.42 M57.36 106.83 C85.89 74.01, 114.42 41.19, 149.86 0.42 M67.99 106.8 C97.14 73.26, 126.3 39.72, 160.49 0.39 M67.99 106.8 C89.43 82.12, 110.88 57.45, 160.49 0.39 M78.62 106.76 C104.9 76.53, 131.18 46.3, 171.12 0.35 M78.62 106.76 C103.04 78.67, 127.46 50.57, 171.12 0.35 M89.25 106.73 C120.91 70.3, 152.58 33.87, 181.75 0.32 M89.25 106.73 C109.56 83.36, 129.87 60, 181.75 0.32 M99.88 106.7 C118.85 84.87, 137.82 63.04, 192.38 0.28 M99.88 106.7 C129.98 72.07, 160.08 37.44, 192.38 0.28 M110.51 106.66 C136.56 76.69, 162.62 46.71, 203.01 0.25 M110.51 106.66 C139 73.89, 167.49 41.11, 203.01 0.25 M121.14 106.63 C157.02 65.34, 192.91 24.06, 213.64 0.21 M121.14 106.63 C147.12 76.74, 173.1 46.85, 213.64 0.21 M131.77 106.59 C155.73 79.03, 179.69 51.46, 224.27 0.18 M131.77 106.59 C153.24 81.89, 174.72 57.18, 224.27 0.18 M142.4 106.56 C166.6 78.72, 190.8 50.88, 234.9 0.14 M142.4 106.56 C171.28 73.33, 200.16 40.1, 234.9 0.14 M153.03 106.52 C180.98 74.36, 208.94 42.21, 244.22 1.62 M153.03 106.52 C182.29 72.86, 211.56 39.19, 244.22 1.62 M163.66 106.49 C195.9 69.4, 228.14 32.31, 252.88 3.85 M163.66 106.49 C198.92 65.92, 234.19 25.35, 252.88 3.85 M174.29 106.45 C204.74 71.42, 235.19 36.39, 258.26 9.85 M174.29 106.45 C199.21 77.78, 224.14 49.11, 258.26 9.85 M184.92 106.42 C210.14 77.4, 235.37 48.38, 261.68 18.12 M184.92 106.42 C207.89 79.99, 230.87 53.56, 261.68 18.12 M195.55 106.39 C213.74 85.46, 231.93 64.53, 262.46 29.4 M195.55 106.39 C214.03 85.13, 232.5 63.87, 262.46 29.4 M206.18 106.35 C223.74 86.15, 241.3 65.94, 262.6 41.45 M206.18 106.35 C228.05 81.19, 249.92 56.03, 262.6 41.45 M216.15 107.07 C234.09 86.43, 252.03 65.79, 262.73 53.49 M216.15 107.07 C233.34 87.3, 250.52 67.53, 262.73 53.49 M226.78 107.04 C239.89 91.96, 253 76.88, 262.86 65.53 M226.78 107.04 C234.62 98.02, 242.45 89.01, 262.86 65.53 M238.07 106.25 C247.03 95.93, 256 85.62, 263 77.57 M238.07 106.25 C245.02 98.24, 251.98 90.24, 263 77.57 M250.66 103.95 C253.24 100.99, 255.81 98.03, 261.16 91.87 M250.66 103.95 C254.22 99.86, 257.77 95.77, 261.16 91.87 M6.33 99.41 C6.33 99.41, 6.33 99.41, 6.33 99.41 M6.33 99.41 C6.33 99.41, 6.33 99.41, 6.33 99.41 M25.92 105.84 C20.38 101.02, 14.84 96.21, 1.01 84.19 M25.92 105.84 C18.54 99.43, 11.16 93.01, 1.01 84.19 M37.96 105.71 C28.64 97.61, 19.33 89.51, 0.98 73.56 M37.96 105.71 C25.56 94.93, 13.16 84.15, 0.98 73.56 M50 105.57 C36.8 94.1, 23.6 82.63, 0.95 62.93 M50 105.57 C38.8 95.83, 27.59 86.09, 0.95 62.93 M62.04 105.44 C48.88 94, 35.73 82.57, 0.91 52.3 M62.04 105.44 C46.29 91.75, 30.54 78.05, 0.91 52.3 M74.08 105.31 C54.8 88.54, 35.51 71.78, 0.88 41.67 M74.08 105.31 C54.53 88.32, 34.99 71.32, 0.88 41.67 M86.88 105.83 C58.42 81.1, 29.97 56.36, 0.84 31.04 M86.88 105.83 C56.75 79.64, 26.63 53.46, 0.84 31.04 M98.92 105.7 C60.57 72.36, 22.21 39.02, 0.81 20.41 M98.92 105.7 C65.78 76.89, 32.65 48.09, 0.81 20.41 M110.96 105.57 C69.21 69.27, 27.47 32.98, 3.04 11.75 M110.96 105.57 C80.18 78.81, 49.4 52.06, 3.04 11.75 M123 105.43 C83.65 71.23, 44.31 37.02, 8.29 5.71 M123 105.43 C81.71 69.54, 40.41 33.64, 8.29 5.71 M135.04 105.3 C101.67 76.29, 68.3 47.28, 15.04 0.99 M135.04 105.3 C95.55 70.96, 56.05 36.63, 15.04 0.99 M147.84 105.82 C109.02 72.08, 70.21 38.34, 25.57 -0.46 M147.84 105.82 C117.65 79.58, 87.46 53.34, 25.57 -0.46 M159.88 105.69 C134.76 83.85, 109.63 62.01, 37.62 -0.59 M159.88 105.69 C118.06 69.33, 76.23 32.98, 37.62 -0.59 M171.92 105.56 C145.23 82.36, 118.54 59.16, 49.66 -0.73 M171.92 105.56 C134.57 73.08, 97.21 40.61, 49.66 -0.73 M183.96 105.42 C150.42 76.26, 116.87 47.1, 62.45 -0.2 M183.96 105.42 C138.06 65.52, 92.15 25.62, 62.45 -0.2 M196.76 105.95 C165.49 78.77, 134.22 51.59, 74.49 -0.34 M196.76 105.95 C167.84 80.81, 138.93 55.68, 74.49 -0.34 M208.8 105.81 C171.72 73.58, 134.64 41.35, 86.53 -0.47 M208.8 105.81 C174.1 75.65, 139.39 45.48, 86.53 -0.47 M220.84 105.68 C178.5 68.87, 136.16 32.07, 98.57 -0.6 M220.84 105.68 C179.98 70.16, 139.12 34.64, 98.57 -0.6 M232.88 105.55 C207.61 83.58, 182.34 61.62, 110.62 -0.74 M232.88 105.55 C196.01 73.5, 159.15 41.46, 110.62 -0.74 M244.92 105.41 C206.92 72.38, 168.91 39.34, 123.41 -0.21 M244.92 105.41 C210.06 75.11, 175.21 44.81, 123.41 -0.21 M253.19 102 C228.21 80.29, 203.23 58.57, 135.45 -0.35 M253.19 102 C221.88 74.79, 190.58 47.57, 135.45 -0.35 M258.44 95.96 C226.92 68.56, 195.4 41.16, 147.49 -0.48 M258.44 95.96 C216.67 59.66, 174.91 23.36, 147.49 -0.48 M262.17 88.61 C236.32 66.14, 210.46 43.66, 159.53 -0.61 M262.17 88.61 C241.05 70.25, 219.93 51.89, 159.53 -0.61 M262.89 78.64 C235.9 55.17, 208.91 31.71, 171.57 -0.75 M262.89 78.64 C237.46 56.53, 212.02 34.41, 171.57 -0.75 M262.86 68.01 C234.27 43.16, 205.68 18.3, 184.37 -0.22 M262.86 68.01 C235.88 44.55, 208.9 21.1, 184.37 -0.22 M262.83 57.38 C243.65 40.71, 224.48 24.04, 196.41 -0.36 M262.83 57.38 C245.38 42.21, 227.93 27.05, 196.41 -0.36 M262.04 46.09 C246.29 32.4, 230.55 18.72, 208.45 -0.49 M262.04 46.09 C246.17 32.3, 230.3 18.5, 208.45 -0.49 M262 35.46 C249.08 24.23, 236.17 13, 220.49 -0.62 M262 35.46 C245.73 21.32, 229.46 7.17, 220.49 -0.62 M261.97 24.83 C253.39 17.37, 244.81 9.91, 232.53 -0.76 M261.97 24.83 C253.93 17.85, 245.9 10.87, 232.53 -0.76 M260.42 12.89 C256.12 9.14, 251.81 5.4, 246.84 1.08 M260.42 12.89 C256.03 9.07, 251.64 5.25, 246.84 1.08" stroke="#b2f2bb" stroke-width="1" fill="none"></path><path d="M26.58 0 C79.3 0, 132.02 0, 236.03 0 M26.58 0 C89.74 0, 152.89 0, 236.03 0 M236.03 0 C253.75 0, 262.61 8.86, 262.61 26.58 M236.03 0 C253.75 0, 262.61 8.86, 262.61 26.58 M262.61 26.58 C262.61 46.52, 262.61 66.46, 262.61 79.75 M262.61 26.58 C262.61 45.38, 262.61 64.17, 262.61 79.75 M262.61 79.75 C262.61 97.47, 253.75 106.33, 236.03 106.33 M262.61 79.75 C262.61 97.47, 253.75 106.33, 236.03 106.33 M236.03 106.33 C174.44 106.33, 112.85 106.33, 26.58 106.33 M236.03 106.33 C192.23 106.33, 148.43 106.33, 26.58 106.33 M26.58 106.33 C8.86 106.33, 0 97.47, 0 79.75 M26.58 106.33 C8.86 106.33, 0 97.47, 0 79.75 M0 79.75 C0 60.21, 0 40.67, 0 26.58 M0 79.75 C0 64.08, 0 48.4, 0 26.58 M0 26.58 C0 8.86, 8.86 0, 26.58 0 M0 26.58 C0 8.86, 8.86 0, 26.58 0" stroke="#1e1e1e" stroke-width="2" fill="none"></path></g><g transform="translate(106.9596862149483 39.1660938469182) rotate(0 35.150001525878906 24)"><text x="35.150001525878906" y="0" font-family="Cascadia, Segoe UI Emoji" font-size="20px" fill="#1e1e1e" text-anchor="middle" style="white-space: pre;" direction="ltr" dominant-baseline="text-before-edge">Source</text><text x="35.150001525878906" y="24" font-family="Cascadia, Segoe UI Emoji" font-size="20px" fill="#1e1e1e" text-anchor="middle" style="white-space: pre;" direction="ltr" dominant-baseline="text-before-edge">code</text></g><g stroke-linecap="round"><g transform="translate(142.8599236622498 117.94328144677334) rotate(0 0.8862816498219104 26.180273485224905)"><path d="M0 0 C0.3 8.73, 1.48 43.63, 1.77 52.36 M0 0 C0.3 8.73, 1.48 43.63, 1.77 52.36" stroke="#1e1e1e" stroke-width="2" fill="none"></path></g><g transform="translate(142.8599236622498 117.94328144677334) rotate(0 0.8862816498219104 26.180273485224905)"><path d="M1.77 52.36 L-5.02 38.99 L7.65 38.56 L1.77 52.36" stroke="none" stroke-width="0" fill="#1e1e1e" fill-rule="evenodd"></path><path d="M1.77 52.36 C-0.87 47.17, -3.5 41.98, -5.02 38.99 M1.77 52.36 C-0.11 48.66, -1.99 44.97, -5.02 38.99 M-5.02 38.99 C-1.85 38.88, 1.32 38.77, 7.65 38.56 M-5.02 38.99 C-0.4 38.83, 4.23 38.67, 7.65 38.56 M7.65 38.56 C6.09 42.21, 4.54 45.87, 1.77 52.36 M7.65 38.56 C5.83 42.83, 4.01 47.1, 1.77 52.36 M1.77 52.36 C1.77 52.36, 1.77 52.36, 1.77 52.36 M1.77 52.36 C1.77 52.36, 1.77 52.36, 1.77 52.36" stroke="#1e1e1e" stroke-width="2" fill="none"></path></g></g><mask></mask><g stroke-linecap="round" transform="translate(12.416640629405606 175.13710967603387) rotate(0 131.3041408643586 53.1660938469182)"><path d="M6.42 6.91 C6.42 6.91, 6.42 6.91, 6.42 6.91 M6.42 6.91 C6.42 6.91, 6.42 6.91, 6.42 6.91 M0.65 25.74 C7.32 18.06, 14 10.38, 22.3 0.83 M0.65 25.74 C4.99 20.74, 9.33 15.75, 22.3 0.83 M0.78 37.78 C12.85 23.9, 24.91 10.02, 33.58 0.04 M0.78 37.78 C13.23 23.46, 25.68 9.14, 33.58 0.04 M0.91 49.82 C16.96 31.36, 33 12.91, 44.21 0.01 M0.91 49.82 C13.38 35.48, 25.85 21.14, 44.21 0.01 M1.05 61.86 C11.94 49.34, 22.82 36.81, 54.84 -0.02 M1.05 61.86 C19.91 40.16, 38.78 18.45, 54.84 -0.02 M1.18 73.9 C14.41 58.68, 27.64 43.46, 65.47 -0.06 M1.18 73.9 C22.39 49.5, 43.61 25.1, 65.47 -0.06 M0.66 86.7 C22.72 61.32, 44.78 35.95, 76.1 -0.09 M0.66 86.7 C16.67 68.28, 32.68 49.87, 76.1 -0.09 M3.42 95.72 C24.7 71.23, 45.99 46.75, 86.73 -0.13 M3.42 95.72 C28.09 67.33, 52.77 38.94, 86.73 -0.13 M8.8 101.72 C33.81 72.95, 58.83 44.17, 97.37 -0.16 M8.8 101.72 C33.62 73.17, 58.44 44.62, 97.37 -0.16 M16.15 105.46 C40.53 77.41, 64.91 49.37, 107.34 0.56 M16.15 105.46 C48.04 68.77, 79.94 32.07, 107.34 0.56 M26.12 106.18 C55.83 72.01, 85.53 37.84, 117.97 0.52 M26.12 106.18 C50.45 78.19, 74.78 50.2, 117.97 0.52 M36.09 106.9 C63.43 75.46, 90.76 44.02, 128.6 0.49 M36.09 106.9 C59.01 80.54, 81.92 54.18, 128.6 0.49 M46.73 106.87 C71.93 77.87, 97.13 48.88, 139.23 0.45 M46.73 106.87 C71.7 78.14, 96.68 49.4, 139.23 0.45 M57.36 106.83 C85.11 74.91, 112.87 42.98, 149.86 0.42 M57.36 106.83 C88.87 70.59, 120.38 34.34, 149.86 0.42 M67.99 106.8 C95.08 75.63, 122.18 44.45, 160.49 0.39 M67.99 106.8 C104.35 64.97, 140.71 23.14, 160.49 0.39 M78.62 106.76 C110.77 69.78, 142.92 32.79, 171.12 0.35 M78.62 106.76 C113.12 67.07, 147.62 27.38, 171.12 0.35 M89.25 106.73 C112.79 79.65, 136.33 52.57, 181.75 0.32 M89.25 106.73 C119.36 72.09, 149.46 37.46, 181.75 0.32 M99.88 106.7 C119.38 84.26, 138.89 61.82, 192.38 0.28 M99.88 106.7 C126.05 76.59, 152.22 46.48, 192.38 0.28 M110.51 106.66 C141.31 71.23, 172.11 35.79, 203.01 0.25 M110.51 106.66 C143.09 69.18, 175.67 31.69, 203.01 0.25 M121.14 106.63 C155.26 67.38, 189.38 28.13, 213.64 0.21 M121.14 106.63 C139.86 85.08, 158.59 63.54, 213.64 0.21 M131.77 106.59 C151.24 84.19, 170.72 61.78, 224.27 0.18 M131.77 106.59 C164.34 69.12, 196.92 31.64, 224.27 0.18 M142.4 106.56 C161.53 84.55, 180.66 62.54, 234.9 0.14 M142.4 106.56 C166.19 79.19, 189.98 51.82, 234.9 0.14 M153.03 106.52 C178.16 77.61, 203.29 48.71, 244.22 1.62 M153.03 106.52 C189.3 64.79, 225.58 23.06, 244.22 1.62 M163.66 106.49 C182.95 84.29, 202.25 62.09, 252.88 3.85 M163.66 106.49 C196.36 68.86, 229.07 31.24, 252.88 3.85 M174.29 106.45 C192.98 84.94, 211.68 63.43, 258.26 9.85 M174.29 106.45 C204.14 72.11, 233.99 37.77, 258.26 9.85 M184.92 106.42 C215.24 71.54, 245.56 36.66, 261.68 18.12 M184.92 106.42 C203.63 84.89, 222.34 63.36, 261.68 18.12 M195.55 106.39 C212.46 86.93, 229.37 67.48, 262.46 29.4 M195.55 106.39 C214.64 84.42, 233.73 62.46, 262.46 29.4 M206.18 106.35 C220.11 90.32, 234.04 74.29, 262.6 41.45 M206.18 106.35 C228.51 80.66, 250.84 54.97, 262.6 41.45 M216.15 107.07 C228.86 92.45, 241.57 77.83, 262.73 53.49 M216.15 107.07 C227.37 94.16, 238.6 81.25, 262.73 53.49 M226.78 107.04 C240.58 91.16, 254.38 75.29, 262.86 65.53 M226.78 107.04 C238.45 93.62, 250.11 80.2, 262.86 65.53 M238.07 106.25 C245.46 97.74, 252.85 89.24, 263 77.57 M238.07 106.25 C244.8 98.5, 251.53 90.76, 263 77.57 M250.66 103.95 C254 100.11, 257.34 96.27, 261.16 91.87 M250.66 103.95 C254.03 100.08, 257.4 96.2, 261.16 91.87 M6.33 99.41 C6.33 99.41, 6.33 99.41, 6.33 99.41 M6.33 99.41 C6.33 99.41, 6.33 99.41, 6.33 99.41 M25.92 105.84 C19.05 99.86, 12.17 93.89, 1.01 84.19 M25.92 105.84 C19.04 99.86, 12.17 93.88, 1.01 84.19 M37.96 105.71 C25.43 94.81, 12.9 83.92, 0.98 73.56 M37.96 105.71 C26.58 95.82, 15.2 85.92, 0.98 73.56 M50 105.57 C31.07 89.11, 12.13 72.65, 0.95 62.93 M50 105.57 C36.68 93.99, 23.35 82.41, 0.95 62.93 M62.04 105.44 C42.74 88.67, 23.44 71.89, 0.91 52.3 M62.04 105.44 C38.81 85.24, 15.57 65.04, 0.91 52.3 M74.08 105.31 C53.37 87.3, 32.65 69.29, 0.88 41.67 M74.08 105.31 C46.06 80.95, 18.04 56.59, 0.88 41.67 M86.88 105.83 C68.64 89.98, 50.4 74.12, 0.84 31.04 M86.88 105.83 C65.05 86.86, 43.23 67.89, 0.84 31.04 M98.92 105.7 C68.66 79.39, 38.39 53.08, 0.81 20.41 M98.92 105.7 C71.54 81.9, 44.16 58.1, 0.81 20.41 M110.96 105.57 C70.77 70.63, 30.59 35.7, 3.04 11.75 M110.96 105.57 C73.76 73.22, 36.55 40.88, 3.04 11.75 M123 105.43 C87.41 74.5, 51.83 43.56, 8.29 5.71 M123 105.43 C97.34 83.13, 71.69 60.82, 8.29 5.71 M135.04 105.3 C105.31 79.46, 75.58 53.61, 15.04 0.99 M135.04 105.3 C103.44 77.83, 71.83 50.35, 15.04 0.99 M147.84 105.82 C118.22 80.07, 88.6 54.32, 25.57 -0.46 M147.84 105.82 C114.4 76.75, 80.96 47.68, 25.57 -0.46 M159.88 105.69 C111.55 63.68, 63.23 21.67, 37.62 -0.59 M159.88 105.69 C133.79 83.01, 107.7 60.33, 37.62 -0.59 M171.92 105.56 C127.31 66.78, 82.71 28.01, 49.66 -0.73 M171.92 105.56 C137.77 75.87, 103.62 46.19, 49.66 -0.73 M183.96 105.42 C150.15 76.03, 116.34 46.64, 62.45 -0.2 M183.96 105.42 C136.29 63.99, 88.62 22.55, 62.45 -0.2 M196.76 105.95 C166.87 79.97, 136.99 53.99, 74.49 -0.34 M196.76 105.95 C161.86 75.61, 126.95 45.27, 74.49 -0.34 M208.8 105.81 C176.23 77.5, 143.66 49.19, 86.53 -0.47 M208.8 105.81 C160.93 64.21, 113.07 22.6, 86.53 -0.47 M220.84 105.68 C177.58 68.07, 134.32 30.47, 98.57 -0.6 M220.84 105.68 C180.47 70.59, 140.11 35.5, 98.57 -0.6 M232.88 105.55 C204.08 80.51, 175.28 55.48, 110.62 -0.74 M232.88 105.55 C184.47 63.47, 136.06 21.38, 110.62 -0.74 M244.92 105.41 C211.87 76.68, 178.82 47.95, 123.41 -0.21 M244.92 105.41 C215.11 79.5, 185.3 53.58, 123.41 -0.21 M253.19 102 C209.88 64.36, 166.58 26.71, 135.45 -0.35 M253.19 102 C207.92 62.65, 162.65 23.29, 135.45 -0.35 M258.44 95.96 C226.9 68.55, 195.37 41.14, 147.49 -0.48 M258.44 95.96 C229.96 71.21, 201.48 46.45, 147.49 -0.48 M262.17 88.61 C226.09 57.24, 190 25.87, 159.53 -0.61 M262.17 88.61 C228.33 59.19, 194.49 29.77, 159.53 -0.61 M262.89 78.64 C228.01 48.31, 193.13 17.99, 171.57 -0.75 M262.89 78.64 C227.86 48.18, 192.83 17.73, 171.57 -0.75 M262.86 68.01 C232.91 41.98, 202.97 15.94, 184.37 -0.22 M262.86 68.01 C231.63 40.86, 200.39 13.7, 184.37 -0.22 M262.83 57.38 C245.35 42.19, 227.88 27, 196.41 -0.36 M262.83 57.38 C246.93 43.56, 231.03 29.74, 196.41 -0.36 M262.04 46.09 C242.83 29.39, 223.62 12.69, 208.45 -0.49 M262.04 46.09 C243.33 29.83, 224.62 13.56, 208.45 -0.49 M262 35.46 C248.24 23.5, 234.49 11.54, 220.49 -0.62 M262 35.46 C252.42 27.13, 242.84 18.8, 220.49 -0.62 M261.97 24.83 C253.44 17.42, 244.92 10.01, 232.53 -0.76 M261.97 24.83 C252.04 16.2, 242.11 7.57, 232.53 -0.76 M260.42 12.89 C256.38 9.38, 252.34 5.87, 246.84 1.08 M260.42 12.89 C255.55 8.65, 250.68 4.42, 246.84 1.08" stroke="#b2f2bb" stroke-width="1" fill="none"></path><path d="M26.58 0 C94.32 0, 162.05 0, 236.03 0 M26.58 0 C107.56 0, 188.54 0, 236.03 0 M236.03 0 C253.75 0, 262.61 8.86, 262.61 26.58 M236.03 0 C253.75 0, 262.61 8.86, 262.61 26.58 M262.61 26.58 C262.61 46.83, 262.61 67.07, 262.61 79.75 M262.61 26.58 C262.61 45.18, 262.61 63.77, 262.61 79.75 M262.61 79.75 C262.61 97.47, 253.75 106.33, 236.03 106.33 M262.61 79.75 C262.61 97.47, 253.75 106.33, 236.03 106.33 M236.03 106.33 C160.08 106.33, 84.13 106.33, 26.58 106.33 M236.03 106.33 C173.86 106.33, 111.69 106.33, 26.58 106.33 M26.58 106.33 C8.86 106.33, 0 97.47, 0 79.75 M26.58 106.33 C8.86 106.33, 0 97.47, 0 79.75 M0 79.75 C0 61.79, 0 43.83, 0 26.58 M0 79.75 C0 59.47, 0 39.18, 0 26.58 M0 26.58 C0 8.86, 8.86 0, 26.58 0 M0 26.58 C0 8.86, 8.86 0, 26.58 0" stroke="#1e1e1e" stroke-width="2" fill="none"></path></g><g transform="translate(26.55411737022905 204.3032035229521) rotate(0 117.16666412353516 24)"><text x="117.16666412353516" y="0" font-family="Cascadia, Segoe UI Emoji" font-size="20px" fill="#1e1e1e" text-anchor="middle" style="white-space: pre;" direction="ltr" dominant-baseline="text-before-edge">Preprocessed source </text><text x="117.16666412353516" y="24" font-family="Cascadia, Segoe UI Emoji" font-size="20px" fill="#1e1e1e" text-anchor="middle" style="white-space: pre;" direction="ltr" dominant-baseline="text-before-edge">code</text></g><g stroke-linecap="round" transform="translate(10 332.21875058738317) rotate(0 131.3041408643586 53.166093846918216)"><path d="M6.42 6.91 C6.42 6.91, 6.42 6.91, 6.42 6.91 M6.42 6.91 C6.42 6.91, 6.42 6.91, 6.42 6.91 M0.65 25.74 C5.25 20.44, 9.86 15.15, 22.3 0.83 M0.65 25.74 C5.8 19.81, 10.95 13.89, 22.3 0.83 M0.78 37.78 C11.95 24.93, 23.13 12.08, 33.58 0.04 M0.78 37.78 C11.9 24.99, 23.02 12.2, 33.58 0.04 M0.91 49.82 C15.9 32.59, 30.88 15.35, 44.21 0.01 M0.91 49.82 C15.39 33.17, 29.86 16.52, 44.21 0.01 M1.05 61.86 C21.61 38.2, 42.18 14.55, 54.84 -0.02 M1.05 61.86 C22.57 37.11, 44.08 12.35, 54.84 -0.02 M1.18 73.9 C21.89 50.08, 42.59 26.26, 65.47 -0.06 M1.18 73.9 C26.04 45.3, 50.91 16.7, 65.47 -0.06 M0.66 86.7 C20.99 63.31, 41.32 39.92, 76.1 -0.09 M0.66 86.7 C23.84 60.03, 47.02 33.36, 76.1 -0.09 M3.42 95.72 C26.16 69.56, 48.9 43.39, 86.73 -0.13 M3.42 95.72 C22.08 74.25, 40.75 52.77, 86.73 -0.13 M8.8 101.72 C29.83 77.53, 50.86 53.33, 97.37 -0.16 M8.8 101.72 C38.6 67.44, 68.4 33.15, 97.37 -0.16 M16.15 105.46 C37.77 80.59, 59.39 55.71, 107.34 0.56 M16.15 105.46 C40.66 77.27, 65.17 49.07, 107.34 0.56 M26.12 106.18 C47.04 82.12, 67.95 58.06, 117.97 0.52 M26.12 106.18 C58.92 68.45, 91.72 30.72, 117.97 0.52 M36.09 106.9 C69.32 68.69, 102.54 30.47, 128.6 0.49 M36.09 106.9 C67.3 71.01, 98.5 35.12, 128.6 0.49 M46.73 106.87 C73.36 76.22, 100 45.58, 139.23 0.45 M46.73 106.87 C68.21 82.15, 89.7 57.43, 139.23 0.45 M57.36 106.83 C84.17 75.99, 110.99 45.14, 149.86 0.42 M57.36 106.83 C79.52 81.33, 101.69 55.84, 149.86 0.42 M67.99 106.8 C102.42 67.19, 136.85 27.57, 160.49 0.39 M67.99 106.8 C88.24 83.5, 108.49 60.2, 160.49 0.39 M78.62 106.76 C114.37 65.63, 150.12 24.5, 171.12 0.35 M78.62 106.76 C113.73 66.37, 148.84 25.98, 171.12 0.35 M89.25 106.73 C120.77 70.46, 152.3 34.2, 181.75 0.32 M89.25 106.73 C123.27 67.59, 157.29 28.45, 181.75 0.32 M99.88 106.7 C128.77 73.45, 157.67 40.21, 192.38 0.28 M99.88 106.7 C132.69 68.95, 165.49 31.21, 192.38 0.28 M110.51 106.66 C143.82 68.34, 177.14 30.01, 203.01 0.25 M110.51 106.66 C140.41 72.26, 170.31 37.86, 203.01 0.25 M121.14 106.63 C143.07 81.39, 165.01 56.16, 213.64 0.21 M121.14 106.63 C154.09 68.71, 187.05 30.8, 213.64 0.21 M131.77 106.59 C159.8 74.34, 187.83 42.1, 224.27 0.18 M131.77 106.59 C161.69 72.16, 191.62 37.73, 224.27 0.18 M142.4 106.56 C164.29 81.37, 186.18 56.19, 234.9 0.14 M142.4 106.56 C176.57 67.24, 210.75 27.93, 234.9 0.14 M153.03 106.52 C184.8 69.97, 216.58 33.41, 244.22 1.62 M153.03 106.52 C171.31 85.49, 189.6 64.45, 244.22 1.62 M163.66 106.49 C189.8 76.41, 215.95 46.33, 252.88 3.85 M163.66 106.49 C196.93 68.21, 230.21 29.93, 252.88 3.85 M174.29 106.45 C206.34 69.58, 238.39 32.71, 258.26 9.85 M174.29 106.45 C206.19 69.75, 238.1 33.05, 258.26 9.85 M184.92 106.42 C207.54 80.4, 230.16 54.37, 261.68 18.12 M184.92 106.42 C210.97 76.45, 237.02 46.48, 261.68 18.12 M195.55 106.39 C221.92 76.04, 248.3 45.69, 262.46 29.4 M195.55 106.39 C214.36 84.74, 233.18 63.09, 262.46 29.4 M206.18 106.35 C219.51 91.02, 232.84 75.68, 262.6 41.45 M206.18 106.35 C219.44 91.1, 232.7 75.84, 262.6 41.45 M216.15 107.07 C229.37 91.87, 242.59 76.66, 262.73 53.49 M216.15 107.07 C230.94 90.06, 245.73 73.04, 262.73 53.49 M226.78 107.04 C234.67 97.96, 242.56 88.89, 262.86 65.53 M226.78 107.04 C234.72 97.91, 242.65 88.78, 262.86 65.53 M238.07 106.25 C244.41 98.95, 250.75 91.66, 263 77.57 M238.07 106.25 C245.44 97.76, 252.81 89.28, 263 77.57 M250.66 103.95 C253.28 100.94, 255.89 97.94, 261.16 91.87 M250.66 103.95 C253.27 100.95, 255.87 97.96, 261.16 91.87 M6.33 99.41 C6.33 99.41, 6.33 99.41, 6.33 99.41 M6.33 99.41 C6.33 99.41, 6.33 99.41, 6.33 99.41 M25.92 105.84 C19.93 100.64, 13.95 95.43, 1.01 84.19 M25.92 105.84 C19.28 100.07, 12.64 94.3, 1.01 84.19 M37.96 105.71 C23.68 93.3, 9.41 80.89, 0.98 73.56 M37.96 105.71 C27.8 96.88, 17.65 88.05, 0.98 73.56 M50 105.57 C39.56 96.5, 29.13 87.43, 0.95 62.93 M50 105.57 C39.34 96.31, 28.69 87.05, 0.95 62.93 M62.04 105.44 C44.54 90.22, 27.03 75, 0.91 52.3 M62.04 105.44 C46.27 91.73, 30.51 78.03, 0.91 52.3 M74.08 105.31 C52.71 86.73, 31.33 68.15, 0.88 41.67 M74.08 105.31 C56.89 90.36, 39.69 75.41, 0.88 41.67 M86.88 105.83 C57.09 79.93, 27.29 54.04, 0.84 31.04 M86.88 105.83 C56.9 79.77, 26.93 53.72, 0.84 31.04 M98.92 105.7 C68.49 79.25, 38.07 52.8, 0.81 20.41 M98.92 105.7 C74.55 84.52, 50.19 63.34, 0.81 20.41 M110.96 105.57 C78.48 77.33, 45.99 49.09, 3.04 11.75 M110.96 105.57 C76.24 75.38, 41.51 45.19, 3.04 11.75 M123 105.43 C99.42 84.94, 75.85 64.44, 8.29 5.71 M123 105.43 C79.39 67.52, 35.77 29.61, 8.29 5.71 M135.04 105.3 C88 64.4, 40.96 23.51, 15.04 0.99 M135.04 105.3 C93.35 69.06, 51.66 32.82, 15.04 0.99 M147.84 105.82 C120.59 82.13, 93.34 58.44, 25.57 -0.46 M147.84 105.82 C105.45 68.97, 63.05 32.12, 25.57 -0.46 M159.88 105.69 C114.99 66.67, 70.1 27.64, 37.62 -0.59 M159.88 105.69 C112.37 64.39, 64.86 23.09, 37.62 -0.59 M171.92 105.56 C133.65 72.28, 95.37 39.01, 49.66 -0.73 M171.92 105.56 C140.37 78.13, 108.83 50.71, 49.66 -0.73 M183.96 105.42 C149.89 75.81, 115.83 46.19, 62.45 -0.2 M183.96 105.42 C159.39 84.07, 134.83 62.71, 62.45 -0.2 M196.76 105.95 C156.03 70.54, 115.3 35.13, 74.49 -0.34 M196.76 105.95 C170.12 82.79, 143.49 59.64, 74.49 -0.34 M208.8 105.81 C173.1 74.79, 137.41 43.76, 86.53 -0.47 M208.8 105.81 C167.36 69.79, 125.93 33.77, 86.53 -0.47 M220.84 105.68 C190.7 79.48, 160.55 53.28, 98.57 -0.6 M220.84 105.68 C181.25 71.26, 141.66 36.85, 98.57 -0.6 M232.88 105.55 C200.07 77.03, 167.26 48.51, 110.62 -0.74 M232.88 105.55 C190.92 69.07, 148.96 32.6, 110.62 -0.74 M244.92 105.41 C205.69 71.31, 166.46 37.21, 123.41 -0.21 M244.92 105.41 C212.45 77.19, 179.99 48.97, 123.41 -0.21 M253.19 102 C208.17 62.87, 163.16 23.74, 135.45 -0.35 M253.19 102 C211.61 65.85, 170.02 29.71, 135.45 -0.35 M258.44 95.96 C220.93 63.36, 183.43 30.76, 147.49 -0.48 M258.44 95.96 C221.49 63.84, 184.54 31.72, 147.49 -0.48 M262.17 88.61 C230.05 60.69, 197.93 32.77, 159.53 -0.61 M262.17 88.61 C231.29 61.77, 200.41 34.92, 159.53 -0.61 M262.89 78.64 C228.73 48.94, 194.56 19.24, 171.57 -0.75 M262.89 78.64 C244.61 62.74, 226.33 46.85, 171.57 -0.75 M262.86 68.01 C243.6 51.26, 224.34 34.52, 184.37 -0.22 M262.86 68.01 C238.38 46.73, 213.9 25.45, 184.37 -0.22 M262.83 57.38 C248.24 44.7, 233.66 32.02, 196.41 -0.36 M262.83 57.38 C240.16 37.68, 217.5 17.98, 196.41 -0.36 M262.04 46.09 C247.5 33.46, 232.97 20.82, 208.45 -0.49 M262.04 46.09 C245.66 31.85, 229.27 17.61, 208.45 -0.49 M262 35.46 C246.69 22.15, 231.37 8.83, 220.49 -0.62 M262 35.46 C252.77 27.44, 243.54 19.41, 220.49 -0.62 M261.97 24.83 C250.54 14.9, 239.12 4.97, 232.53 -0.76 M261.97 24.83 C250.33 14.71, 238.69 4.59, 232.53 -0.76 M260.42 12.89 C257.39 10.25, 254.36 7.62, 246.84 1.08 M260.42 12.89 C256.3 9.3, 252.17 5.71, 246.84 1.08" stroke="#ffc9c9" stroke-width="1" fill="none"></path><path d="M26.58 0 C91.56 0, 156.53 0, 236.03 0 M26.58 0 C73.43 0, 120.27 0, 236.03 0 M236.03 0 C253.75 0, 262.61 8.86, 262.61 26.58 M236.03 0 C253.75 0, 262.61 8.86, 262.61 26.58 M262.61 26.58 C262.61 46.63, 262.61 66.68, 262.61 79.75 M262.61 26.58 C262.61 40.3, 262.61 54.02, 262.61 79.75 M262.61 79.75 C262.61 97.47, 253.75 106.33, 236.03 106.33 M262.61 79.75 C262.61 97.47, 253.75 106.33, 236.03 106.33 M236.03 106.33 C170.16 106.33, 104.3 106.33, 26.58 106.33 M236.03 106.33 C170.01 106.33, 103.99 106.33, 26.58 106.33 M26.58 106.33 C8.86 106.33, 0 97.47, 0 79.75 M26.58 106.33 C8.86 106.33, 0 97.47, 0 79.75 M0 79.75 C0 66.91, 0 54.06, 0 26.58 M0 79.75 C0 58.89, 0 38.03, 0 26.58 M0 26.58 C0 8.86, 8.86 0, 26.58 0 M0 26.58 C0 8.86, 8.86 0, 26.58 0" stroke="#1e1e1e" stroke-width="2" fill="none"></path></g><g transform="translate(65.14580803965157 373.3848444343014) rotate(0 76.15833282470703 12)"><text x="76.15833282470703" y="0" font-family="Cascadia, Segoe UI Emoji" font-size="20px" fill="#1e1e1e" text-anchor="middle" style="white-space: pre;" direction="ltr" dominant-baseline="text-before-edge">Assembly code</text></g><g stroke-linecap="round"><g transform="translate(142.10800706822693 282.46929736987033) rotate(0 0.003370102213523296 24.374726608756447)"><path d="M0 0 C0 8.12, 0.01 40.62, 0.01 48.75 M0 0 C0 8.12, 0.01 40.62, 0.01 48.75" stroke="#1e1e1e" stroke-width="2" fill="none"></path></g><g transform="translate(142.10800706822693 282.46929736987033) rotate(0 0.003370102213523296 24.374726608756447)"><path d="M0.01 48.75 L-6.33 35.16 L6.34 35.15 L0.01 48.75" stroke="none" stroke-width="0" fill="#1e1e1e" fill-rule="evenodd"></path><path d="M0.01 48.75 C-2.24 43.93, -4.49 39.12, -6.33 35.16 M0.01 48.75 C-1.26 46.03, -2.53 43.3, -6.33 35.16 M-6.33 35.16 C-1.45 35.16, 3.44 35.15, 6.34 35.15 M-6.33 35.16 C-1.52 35.16, 3.29 35.15, 6.34 35.15 M6.34 35.15 C3.88 40.44, 1.41 45.73, 0.01 48.75 M6.34 35.15 C4.25 39.65, 2.15 44.15, 0.01 48.75 M0.01 48.75 C0.01 48.75, 0.01 48.75, 0.01 48.75 M0.01 48.75 C0.01 48.75, 0.01 48.75, 0.01 48.75" stroke="#1e1e1e" stroke-width="2" fill="none"></path></g></g><mask></mask><g stroke-linecap="round" transform="translate(12.416640629405379 482.0504696105161) rotate(0 131.3041408643586 53.16609384691819)"><path d="M6.42 6.91 C6.42 6.91, 6.42 6.91, 6.42 6.91 M6.42 6.91 C6.42 6.91, 6.42 6.91, 6.42 6.91 M0.65 25.74 C8.29 16.95, 15.93 8.16, 22.3 0.83 M0.65 25.74 C6.32 19.21, 11.99 12.69, 22.3 0.83 M0.78 37.78 C9.97 27.21, 19.16 16.63, 33.58 0.04 M0.78 37.78 C10.77 26.29, 20.76 14.8, 33.58 0.04 M0.91 49.82 C14.67 34, 28.43 18.17, 44.21 0.01 M0.91 49.82 C13.71 35.1, 26.51 20.37, 44.21 0.01 M1.05 61.86 C13.78 47.21, 26.52 32.56, 54.84 -0.02 M1.05 61.86 C21.9 37.88, 42.75 13.89, 54.84 -0.02 M1.18 73.9 C22.61 49.25, 44.04 24.6, 65.47 -0.06 M1.18 73.9 C21.39 50.66, 41.6 27.41, 65.47 -0.06 M0.66 86.7 C24.46 59.32, 48.26 31.94, 76.1 -0.09 M0.66 86.7 C23.58 60.33, 46.51 33.95, 76.1 -0.09 M3.42 95.72 C35.99 58.24, 68.57 20.77, 86.73 -0.13 M3.42 95.72 C35.99 58.25, 68.56 20.78, 86.73 -0.13 M8.8 101.72 C40.21 65.59, 71.62 29.45, 97.37 -0.16 M8.8 101.72 C37.96 68.17, 67.13 34.62, 97.37 -0.16 M16.15 105.46 C41.31 76.52, 66.46 47.58, 107.34 0.56 M16.15 105.46 C43.91 73.52, 71.68 41.58, 107.34 0.56 M26.12 106.18 C61.59 65.38, 97.06 24.57, 117.97 0.52 M26.12 106.18 C48.72 80.19, 71.31 54.2, 117.97 0.52 M36.09 106.9 C70.02 67.88, 103.95 28.85, 128.6 0.49 M36.09 106.9 C67.56 70.7, 99.03 34.51, 128.6 0.49 M46.73 106.87 C68.54 81.78, 90.35 56.69, 139.23 0.45 M46.73 106.87 C78.39 70.44, 110.06 34.01, 139.23 0.45 M57.36 106.83 C79.2 81.7, 101.05 56.57, 149.86 0.42 M57.36 106.83 C84.14 76.02, 110.92 45.21, 149.86 0.42 M67.99 106.8 C97.85 72.45, 127.71 38.09, 160.49 0.39 M67.99 106.8 C87.68 84.14, 107.38 61.48, 160.49 0.39 M78.62 106.76 C101.78 80.12, 124.94 53.47, 171.12 0.35 M78.62 106.76 C101.77 80.12, 124.93 53.48, 171.12 0.35 M89.25 106.73 C113.35 79, 137.45 51.28, 181.75 0.32 M89.25 106.73 C122.43 68.56, 155.61 30.39, 181.75 0.32 M99.88 106.7 C134.06 67.37, 168.25 28.04, 192.38 0.28 M99.88 106.7 C120.84 82.58, 141.8 58.47, 192.38 0.28 M110.51 106.66 C134.17 79.44, 157.84 52.21, 203.01 0.25 M110.51 106.66 C146.28 65.51, 182.06 24.35, 203.01 0.25 M121.14 106.63 C153.27 69.66, 185.41 32.68, 213.64 0.21 M121.14 106.63 C151.53 71.67, 181.92 36.71, 213.64 0.21 M131.77 106.59 C160.39 73.67, 189.01 40.74, 224.27 0.18 M131.77 106.59 C151.23 84.2, 170.7 61.81, 224.27 0.18 M142.4 106.56 C173.07 71.27, 203.74 35.99, 234.9 0.14 M142.4 106.56 C176.87 66.9, 211.34 27.25, 234.9 0.14 M153.03 106.52 C172.7 83.89, 192.37 61.27, 244.22 1.62 M153.03 106.52 C175.77 80.36, 198.51 54.19, 244.22 1.62 M163.66 106.49 C187.15 79.46, 210.64 52.44, 252.88 3.85 M163.66 106.49 C188.79 77.58, 213.92 48.66, 252.88 3.85 M174.29 106.45 C204.76 71.4, 235.23 36.34, 258.26 9.85 M174.29 106.45 C193.56 84.28, 212.84 62.1, 258.26 9.85 M184.92 106.42 C206.23 81.9, 227.54 57.38, 261.68 18.12 M184.92 106.42 C206.77 81.28, 228.62 56.14, 261.68 18.12 M195.55 106.39 C217.82 80.76, 240.1 55.13, 262.46 29.4 M195.55 106.39 C221.17 76.9, 246.8 47.42, 262.46 29.4 M206.18 106.35 C223.3 86.65, 240.42 66.96, 262.6 41.45 M206.18 106.35 C224.06 85.78, 241.94 65.21, 262.6 41.45 M216.15 107.07 C230.19 90.92, 244.23 74.77, 262.73 53.49 M216.15 107.07 C227.71 93.78, 239.26 80.48, 262.73 53.49 M226.78 107.04 C236.28 96.11, 245.78 85.18, 262.86 65.53 M226.78 107.04 C234.71 97.91, 242.64 88.79, 262.86 65.53 M238.07 106.25 C244 99.43, 249.93 92.6, 263 77.57 M238.07 106.25 C244.79 98.52, 251.5 90.79, 263 77.57 M250.66 103.95 C253.54 100.65, 256.41 97.35, 261.16 91.87 M250.66 103.95 C254.25 99.83, 257.83 95.71, 261.16 91.87 M6.33 99.41 C6.33 99.41, 6.33 99.41, 6.33 99.41 M6.33 99.41 C6.33 99.41, 6.33 99.41, 6.33 99.41 M25.92 105.84 C19.84 100.56, 13.77 95.28, 1.01 84.19 M25.92 105.84 C17.58 98.59, 9.23 91.34, 1.01 84.19 M37.96 105.71 C28.31 97.31, 18.65 88.92, 0.98 73.56 M37.96 105.71 C27.2 96.35, 16.44 87, 0.98 73.56 M50 105.57 C36.33 93.69, 22.66 81.81, 0.95 62.93 M50 105.57 C32.27 90.16, 14.53 74.74, 0.95 62.93 M62.04 105.44 C46.43 91.87, 30.81 78.29, 0.91 52.3 M62.04 105.44 C43 88.89, 23.95 72.33, 0.91 52.3 M74.08 105.31 C53.95 87.8, 33.81 70.3, 0.88 41.67 M74.08 105.31 C53.05 87.02, 32.02 68.74, 0.88 41.67 M86.88 105.83 C66.83 88.4, 46.78 70.97, 0.84 31.04 M86.88 105.83 C58.54 81.19, 30.19 56.55, 0.84 31.04 M98.92 105.7 C67.08 78.02, 35.23 50.34, 0.81 20.41 M98.92 105.7 C70.95 81.39, 42.98 57.07, 0.81 20.41 M110.96 105.57 C75.14 74.42, 39.31 43.28, 3.04 11.75 M110.96 105.57 C76.37 75.49, 41.78 45.42, 3.04 11.75 M123 105.43 C87.19 74.3, 51.38 43.18, 8.29 5.71 M123 105.43 C96.18 82.12, 69.36 58.81, 8.29 5.71 M135.04 105.3 C100.94 75.66, 66.84 46.01, 15.04 0.99 M135.04 105.3 C91.01 67.02, 46.98 28.75, 15.04 0.99 M147.84 105.82 C109.12 72.17, 70.41 38.51, 25.57 -0.46 M147.84 105.82 C108.87 71.95, 69.9 38.07, 25.57 -0.46 M159.88 105.69 C133.55 82.8, 107.22 59.91, 37.62 -0.59 M159.88 105.69 C128.45 78.37, 97.02 51.05, 37.62 -0.59 M171.92 105.56 C146.17 83.17, 120.41 60.78, 49.66 -0.73 M171.92 105.56 C143.63 80.96, 115.33 56.36, 49.66 -0.73 M183.96 105.42 C154.19 79.55, 124.43 53.67, 62.45 -0.2 M183.96 105.42 C149.27 75.27, 114.58 45.11, 62.45 -0.2 M196.76 105.95 C164.92 78.27, 133.08 50.59, 74.49 -0.34 M196.76 105.95 C151.57 66.66, 106.38 27.38, 74.49 -0.34 M208.8 105.81 C173.81 75.4, 138.82 44.98, 86.53 -0.47 M208.8 105.81 C177.85 78.91, 146.89 52, 86.53 -0.47 M220.84 105.68 C180.98 71.03, 141.11 36.38, 98.57 -0.6 M220.84 105.68 C191.83 80.46, 162.82 55.25, 98.57 -0.6 M232.88 105.55 C202.81 79.41, 172.75 53.28, 110.62 -0.74 M232.88 105.55 C200.22 77.15, 167.55 48.76, 110.62 -0.74 M244.92 105.41 C213.17 77.81, 181.42 50.21, 123.41 -0.21 M244.92 105.41 C215.19 79.57, 185.46 53.72, 123.41 -0.21 M253.19 102 C226.71 78.99, 200.24 55.97, 135.45 -0.35 M253.19 102 C213.05 67.11, 172.92 32.23, 135.45 -0.35 M258.44 95.96 C223.62 65.7, 188.81 35.44, 147.49 -0.48 M258.44 95.96 C224.23 66.22, 190.02 36.49, 147.49 -0.48 M262.17 88.61 C229.59 60.29, 197.01 31.97, 159.53 -0.61 M262.17 88.61 C221.74 53.46, 181.31 18.32, 159.53 -0.61 M262.89 78.64 C233.24 52.86, 203.58 27.07, 171.57 -0.75 M262.89 78.64 C239.97 58.71, 217.05 38.78, 171.57 -0.75 M262.86 68.01 C246.23 53.55, 229.6 39.1, 184.37 -0.22 M262.86 68.01 C243.06 50.8, 223.27 33.59, 184.37 -0.22 M262.83 57.38 C240.95 38.36, 219.08 19.35, 196.41 -0.36 M262.83 57.38 C249.43 45.73, 236.03 34.09, 196.41 -0.36 M262.04 46.09 C241.14 27.92, 220.24 9.76, 208.45 -0.49 M262.04 46.09 C248.75 34.55, 235.47 23, 208.45 -0.49 M262 35.46 C247.21 22.6, 232.42 9.75, 220.49 -0.62 M262 35.46 C245.58 21.18, 229.16 6.91, 220.49 -0.62 M261.97 24.83 C252.32 16.45, 242.68 8.06, 232.53 -0.76 M261.97 24.83 C255.51 19.22, 249.06 13.61, 232.53 -0.76 M260.42 12.89 C257.32 10.19, 254.22 7.5, 246.84 1.08 M260.42 12.89 C255.34 8.47, 250.25 4.05, 246.84 1.08" stroke="#ffc9c9" stroke-width="1" fill="none"></path><path d="M26.58 0 C74.36 0, 122.15 0, 236.03 0 M26.58 0 C75.51 0, 124.44 0, 236.03 0 M236.03 0 C253.75 0, 262.61 8.86, 262.61 26.58 M236.03 0 C253.75 0, 262.61 8.86, 262.61 26.58 M262.61 26.58 C262.61 44.29, 262.61 62, 262.61 79.75 M262.61 26.58 C262.61 43.22, 262.61 59.86, 262.61 79.75 M262.61 79.75 C262.61 97.47, 253.75 106.33, 236.03 106.33 M262.61 79.75 C262.61 97.47, 253.75 106.33, 236.03 106.33 M236.03 106.33 C156.4 106.33, 76.78 106.33, 26.58 106.33 M236.03 106.33 C173.74 106.33, 111.45 106.33, 26.58 106.33 M26.58 106.33 C8.86 106.33, 0 97.47, 0 79.75 M26.58 106.33 C8.86 106.33, 0 97.47, 0 79.75 M0 79.75 C0 58.85, 0 37.95, 0 26.58 M0 79.75 C0 68.44, 0 57.13, 0 26.58 M0 26.58 C0 8.86, 8.86 0, 26.58 0 M0 26.58 C0 8.86, 8.86 0, 26.58 0" stroke="#1e1e1e" stroke-width="2" fill="none"></path></g><g transform="translate(73.42077844200617 523.2165634574343) rotate(0 70.30000305175781 12)"><text x="70.30000305175781" y="0" font-family="Cascadia, Segoe UI Emoji" font-size="20px" fill="#1e1e1e" text-anchor="middle" style="white-space: pre;" direction="ltr" dominant-baseline="text-before-edge">Machine code</text></g><g stroke-linecap="round"><g transform="translate(142.10631763861375 438.34261796651685) rotate(0 0.40614354044771517 20.74976566464838)"><path d="M0 0 C0.14 6.92, 0.68 34.58, 0.81 41.5 M0 0 C0.14 6.92, 0.68 34.58, 0.81 41.5" stroke="#1e1e1e" stroke-width="2" fill="none"></path></g><g transform="translate(142.10631763861375 438.34261796651685) rotate(0 0.40614354044771517 20.74976566464838)"><path d="M0.81 41.5 L-5.79 28.03 L6.88 27.78 L0.81 41.5" stroke="none" stroke-width="0" fill="#1e1e1e" fill-rule="evenodd"></path><path d="M0.81 41.5 C-1.46 36.87, -3.72 32.25, -5.79 28.03 M0.81 41.5 C-1.74 36.28, -4.3 31.07, -5.79 28.03 M-5.79 28.03 C-0.93 27.94, 3.93 27.84, 6.88 27.78 M-5.79 28.03 C-2.65 27.97, 0.5 27.91, 6.88 27.78 M6.88 27.78 C4.84 32.4, 2.8 37.02, 0.81 41.5 M6.88 27.78 C5.34 31.26, 3.8 34.74, 0.81 41.5 M0.81 41.5 C0.81 41.5, 0.81 41.5, 0.81 41.5 M0.81 41.5 C0.81 41.5, 0.81 41.5, 0.81 41.5" stroke="#1e1e1e" stroke-width="2" fill="none"></path></g></g><mask></mask><g stroke-linecap="round" transform="translate(14.027734382342373 637.5210167689286) rotate(0 131.3041408643586 53.166093846918216)"><path d="M6.42 6.91 C6.42 6.91, 6.42 6.91, 6.42 6.91 M6.42 6.91 C6.42 6.91, 6.42 6.91, 6.42 6.91 M0.65 25.74 C9.04 16.09, 17.42 6.44, 22.3 0.83 M0.65 25.74 C5.47 20.19, 10.3 14.64, 22.3 0.83 M0.78 37.78 C11.4 25.56, 22.02 13.35, 33.58 0.04 M0.78 37.78 C10.3 26.84, 19.81 15.89, 33.58 0.04 M0.91 49.82 C14.42 34.28, 27.93 18.74, 44.21 0.01 M0.91 49.82 C18.03 30.13, 35.15 10.44, 44.21 0.01 M1.05 61.86 C20.48 39.51, 39.91 17.16, 54.84 -0.02 M1.05 61.86 C14.68 46.17, 28.32 30.49, 54.84 -0.02 M1.18 73.9 C14.34 58.77, 27.49 43.63, 65.47 -0.06 M1.18 73.9 C24.38 47.21, 47.58 20.52, 65.47 -0.06 M0.66 86.7 C29.93 53.02, 59.21 19.34, 76.1 -0.09 M0.66 86.7 C23.9 59.97, 47.13 33.23, 76.1 -0.09 M3.42 95.72 C33.12 61.54, 62.83 27.37, 86.73 -0.13 M3.42 95.72 C27.75 67.72, 52.09 39.73, 86.73 -0.13 M8.8 101.72 C39.13 66.82, 69.47 31.93, 97.37 -0.16 M8.8 101.72 C29.12 78.34, 49.44 54.97, 97.37 -0.16 M16.15 105.46 C39.2 78.94, 62.26 52.41, 107.34 0.56 M16.15 105.46 C40.59 77.34, 65.04 49.22, 107.34 0.56 M26.12 106.18 C58.87 68.51, 91.62 30.83, 117.97 0.52 M26.12 106.18 C53.67 74.49, 81.23 42.79, 117.97 0.52 M36.09 106.9 C70.53 67.28, 104.97 27.67, 128.6 0.49 M36.09 106.9 C61.44 77.74, 86.79 48.59, 128.6 0.49 M46.73 106.87 C79.64 69, 112.56 31.14, 139.23 0.45 M46.73 106.87 C75.21 74.1, 103.7 41.32, 139.23 0.45 M57.36 106.83 C93.2 65.6, 129.04 24.37, 149.86 0.42 M57.36 106.83 C75.99 85.4, 94.62 63.96, 149.86 0.42 M67.99 106.8 C92.01 79.16, 116.04 51.52, 160.49 0.39 M67.99 106.8 C100.18 69.76, 132.38 32.73, 160.49 0.39 M78.62 106.76 C112.35 67.96, 146.09 29.15, 171.12 0.35 M78.62 106.76 C101.57 80.36, 124.52 53.96, 171.12 0.35 M89.25 106.73 C124.54 66.13, 159.83 25.53, 181.75 0.32 M89.25 106.73 C109.7 83.2, 130.15 59.68, 181.75 0.32 M99.88 106.7 C133.55 67.96, 167.22 29.23, 192.38 0.28 M99.88 106.7 C129.29 72.85, 158.71 39.01, 192.38 0.28 M110.51 106.66 C131.6 82.39, 152.7 58.12, 203.01 0.25 M110.51 106.66 C132.17 81.74, 153.83 56.82, 203.01 0.25 M121.14 106.63 C143.26 81.17, 165.39 55.72, 213.64 0.21 M121.14 106.63 C141.62 83.06, 162.1 59.5, 213.64 0.21 M131.77 106.59 C159.52 74.66, 187.28 42.73, 224.27 0.18 M131.77 106.59 C150.34 85.23, 168.91 63.86, 224.27 0.18 M142.4 106.56 C164.4 81.24, 186.41 55.93, 234.9 0.14 M142.4 106.56 C167.82 77.31, 193.25 48.06, 234.9 0.14 M153.03 106.52 C179.65 75.89, 206.28 45.26, 244.22 1.62 M153.03 106.52 C174.95 81.3, 196.88 56.07, 244.22 1.62 M163.66 106.49 C181.62 85.83, 199.58 65.16, 252.88 3.85 M163.66 106.49 C190.51 75.59, 217.37 44.69, 252.88 3.85 M174.29 106.45 C198.8 78.25, 223.32 50.05, 258.26 9.85 M174.29 106.45 C206.12 69.83, 237.96 33.21, 258.26 9.85 M184.92 106.42 C212.9 74.23, 240.89 42.03, 261.68 18.12 M184.92 106.42 C202.49 86.2, 220.06 65.99, 261.68 18.12 M195.55 106.39 C221.11 76.98, 246.67 47.58, 262.46 29.4 M195.55 106.39 C218.89 79.53, 242.24 52.67, 262.46 29.4 M206.18 106.35 C226.29 83.21, 246.4 60.08, 262.6 41.45 M206.18 106.35 C222.76 87.28, 239.34 68.2, 262.6 41.45 M216.15 107.07 C227.22 94.34, 238.29 81.6, 262.73 53.49 M216.15 107.07 C234.23 86.27, 252.31 65.48, 262.73 53.49 M226.78 107.04 C241.2 90.45, 255.62 73.86, 262.86 65.53 M226.78 107.04 C235.35 97.18, 243.91 87.33, 262.86 65.53 M238.07 106.25 C246.26 96.83, 254.44 87.41, 263 77.57 M238.07 106.25 C244.09 99.32, 250.11 92.4, 263 77.57 M250.66 103.95 C253.92 100.2, 257.18 96.46, 261.16 91.87 M250.66 103.95 C253.89 100.24, 257.11 96.53, 261.16 91.87 M6.33 99.41 C6.33 99.41, 6.33 99.41, 6.33 99.41 M6.33 99.41 C6.33 99.41, 6.33 99.41, 6.33 99.41 M25.92 105.84 C18.49 99.38, 11.06 92.92, 1.01 84.19 M25.92 105.84 C19.52 100.27, 13.11 94.71, 1.01 84.19 M37.96 105.71 C28.27 97.29, 18.58 88.86, 0.98 73.56 M37.96 105.71 C26.85 96.05, 15.75 86.4, 0.98 73.56 M50 105.57 C31.96 89.89, 13.91 74.2, 0.95 62.93 M50 105.57 C32.95 90.75, 15.89 75.93, 0.95 62.93 M62.04 105.44 C49.06 94.16, 36.08 82.88, 0.91 52.3 M62.04 105.44 C42.1 88.1, 22.15 70.76, 0.91 52.3 M74.08 105.31 C50.93 85.18, 27.77 65.05, 0.88 41.67 M74.08 105.31 C48.81 83.34, 23.54 61.37, 0.88 41.67 M86.88 105.83 C68.55 89.9, 50.23 73.97, 0.84 31.04 M86.88 105.83 C69.04 90.32, 51.19 74.81, 0.84 31.04 M98.92 105.7 C66.05 77.12, 33.18 48.55, 0.81 20.41 M98.92 105.7 C67.27 78.19, 35.63 50.68, 0.81 20.41 M110.96 105.57 C78.34 77.21, 45.72 48.86, 3.04 11.75 M110.96 105.57 C87.27 84.97, 63.58 64.38, 3.04 11.75 M123 105.43 C99.02 84.59, 75.04 63.74, 8.29 5.71 M123 105.43 C93.32 79.63, 63.65 53.84, 8.29 5.71 M135.04 105.3 C97.61 72.76, 60.17 40.22, 15.04 0.99 M135.04 105.3 C93.67 69.34, 52.3 33.37, 15.04 0.99 M147.84 105.82 C109.06 72.12, 70.29 38.41, 25.57 -0.46 M147.84 105.82 C118.63 80.43, 89.42 55.04, 25.57 -0.46 M159.88 105.69 C127.13 77.22, 94.39 48.76, 37.62 -0.59 M159.88 105.69 C126.68 76.83, 93.49 47.98, 37.62 -0.59 M171.92 105.56 C143.57 80.91, 115.21 56.26, 49.66 -0.73 M171.92 105.56 C140.79 78.49, 109.66 51.43, 49.66 -0.73 M183.96 105.42 C136.66 64.3, 89.35 23.18, 62.45 -0.2 M183.96 105.42 C136.04 63.76, 88.11 22.1, 62.45 -0.2 M196.76 105.95 C157.68 71.97, 118.6 38, 74.49 -0.34 M196.76 105.95 C171.85 84.3, 146.95 62.65, 74.49 -0.34 M208.8 105.81 C173.39 75.04, 137.99 44.26, 86.53 -0.47 M208.8 105.81 C182.59 83.03, 156.38 60.25, 86.53 -0.47 M220.84 105.68 C179.22 69.5, 137.6 33.32, 98.57 -0.6 M220.84 105.68 C185.38 74.86, 149.92 44.03, 98.57 -0.6 M232.88 105.55 C186.96 65.63, 141.05 25.72, 110.62 -0.74 M232.88 105.55 C191.5 69.58, 150.13 33.61, 110.62 -0.74 M244.92 105.41 C214.78 79.22, 184.65 53.02, 123.41 -0.21 M244.92 105.41 C217.71 81.76, 190.5 58.11, 123.41 -0.21 M253.19 102 C224 76.63, 194.81 51.25, 135.45 -0.35 M253.19 102 C220.22 73.34, 187.25 44.68, 135.45 -0.35 M258.44 95.96 C215.17 58.35, 171.9 20.74, 147.49 -0.48 M258.44 95.96 C233.82 74.56, 209.2 53.16, 147.49 -0.48 M262.17 88.61 C231.27 61.74, 200.36 34.88, 159.53 -0.61 M262.17 88.61 C235.61 65.52, 209.05 42.43, 159.53 -0.61 M262.89 78.64 C234.79 54.21, 206.69 29.78, 171.57 -0.75 M262.89 78.64 C244.02 62.23, 225.15 45.82, 171.57 -0.75 M262.86 68.01 C237.48 45.95, 212.1 23.88, 184.37 -0.22 M262.86 68.01 C247.11 54.32, 231.37 40.63, 184.37 -0.22 M262.83 57.38 C240.5 37.97, 218.17 18.56, 196.41 -0.36 M262.83 57.38 C249.06 45.41, 235.29 33.44, 196.41 -0.36 M262.04 46.09 C246.15 32.28, 230.26 18.47, 208.45 -0.49 M262.04 46.09 C243.95 30.37, 225.86 14.64, 208.45 -0.49 M262 35.46 C253.52 28.09, 245.05 20.72, 220.49 -0.62 M262 35.46 C247.1 22.51, 232.2 9.55, 220.49 -0.62 M261.97 24.83 C250.3 14.69, 238.64 4.55, 232.53 -0.76 M261.97 24.83 C255.84 19.51, 249.72 14.18, 232.53 -0.76 M260.42 12.89 C257.24 10.12, 254.05 7.35, 246.84 1.08 M260.42 12.89 C256.3 9.31, 252.18 5.73, 246.84 1.08" stroke="#ffec99" stroke-width="1" fill="none"></path><path d="M26.58 0 C71.69 0, 116.8 0, 236.03 0 M26.58 0 C80.42 0, 134.26 0, 236.03 0 M236.03 0 C253.75 0, 262.61 8.86, 262.61 26.58 M236.03 0 C253.75 0, 262.61 8.86, 262.61 26.58 M262.61 26.58 C262.61 46.41, 262.61 66.24, 262.61 79.75 M262.61 26.58 C262.61 42.93, 262.61 59.27, 262.61 79.75 M262.61 79.75 C262.61 97.47, 253.75 106.33, 236.03 106.33 M262.61 79.75 C262.61 97.47, 253.75 106.33, 236.03 106.33 M236.03 106.33 C165.59 106.33, 95.15 106.33, 26.58 106.33 M236.03 106.33 C177.29 106.33, 118.56 106.33, 26.58 106.33 M26.58 106.33 C8.86 106.33, 0 97.47, 0 79.75 M26.58 106.33 C8.86 106.33, 0 97.47, 0 79.75 M0 79.75 C0 62.91, 0 46.07, 0 26.58 M0 79.75 C0 68.35, 0 56.95, 0 26.58 M0 26.58 C0 8.86, 8.86 0, 26.58 0 M0 26.58 C0 8.86, 8.86 0, 26.58 0" stroke="#1e1e1e" stroke-width="2" fill="none"></path></g><g transform="translate(110.18187372082207 678.6871106158468) rotate(0 35.150001525878906 12)"><text x="35.150001525878906" y="0" font-family="Cascadia, Segoe UI Emoji" font-size="20px" fill="#1e1e1e" text-anchor="middle" style="white-space: pre;" direction="ltr" dominant-baseline="text-before-edge">Binary</text></g><g stroke-linecap="round"><g transform="translate(141.70354420037938 593.410391686695) rotate(0 0.40614354044771517 20.749765664648407)"><path d="M0 0 C0.14 6.92, 0.68 34.58, 0.81 41.5 M0 0 C0.14 6.92, 0.68 34.58, 0.81 41.5" stroke="#1e1e1e" stroke-width="2" fill="none"></path></g><g transform="translate(141.70354420037938 593.410391686695) rotate(0 0.40614354044771517 20.749765664648407)"><path d="M0.81 41.5 L-5.79 28.03 L6.88 27.78 L0.81 41.5" stroke="none" stroke-width="0" fill="#1e1e1e" fill-rule="evenodd"></path><path d="M0.81 41.5 C-1.12 37.57, -3.05 33.63, -5.79 28.03 M0.81 41.5 C-1.45 36.89, -3.71 32.27, -5.79 28.03 M-5.79 28.03 C-2.88 27.97, 0.03 27.92, 6.88 27.78 M-5.79 28.03 C-2.59 27.97, 0.62 27.91, 6.88 27.78 M6.88 27.78 C5.26 31.46, 3.63 35.14, 0.81 41.5 M6.88 27.78 C4.72 32.67, 2.55 37.56, 0.81 41.5 M0.81 41.5 C0.81 41.5, 0.81 41.5, 0.81 41.5 M0.81 41.5 C0.81 41.5, 0.81 41.5, 0.81 41.5" stroke="#1e1e1e" stroke-width="2" fill="none"></path></g></g><mask></mask><g stroke-linecap="round" transform="translate(341.8853131050049 525.550000939813) rotate(0 131.3041408643586 53.166093846918216)"><path d="M6.42 6.91 C6.42 6.91, 6.42 6.91, 6.42 6.91 M6.42 6.91 C6.42 6.91, 6.42 6.91, 6.42 6.91 M0.65 25.74 C7.17 18.24, 13.68 10.74, 22.3 0.83 M0.65 25.74 C6.97 18.47, 13.29 11.2, 22.3 0.83 M0.78 37.78 C13.22 23.47, 25.65 9.17, 33.58 0.04 M0.78 37.78 C12.74 24.02, 24.7 10.26, 33.58 0.04 M0.91 49.82 C10.83 38.42, 20.74 27.01, 44.21 0.01 M0.91 49.82 C17.45 30.79, 33.99 11.77, 44.21 0.01 M1.05 61.86 C19.82 40.27, 38.59 18.68, 54.84 -0.02 M1.05 61.86 C20.23 39.8, 39.4 17.74, 54.84 -0.02 M1.18 73.9 C20.08 52.17, 38.97 30.43, 65.47 -0.06 M1.18 73.9 C16.46 56.32, 31.74 38.75, 65.47 -0.06 M0.66 86.7 C29.94 53.01, 59.22 19.32, 76.1 -0.09 M0.66 86.7 C30.81 52.02, 60.95 17.34, 76.1 -0.09 M3.42 95.72 C23.19 72.97, 42.97 50.22, 86.73 -0.13 M3.42 95.72 C30.78 64.24, 58.15 32.75, 86.73 -0.13 M8.8 101.72 C30.19 77.12, 51.57 52.51, 97.37 -0.16 M8.8 101.72 C36.27 70.12, 63.74 38.52, 97.37 -0.16 M16.15 105.46 C44.15 73.25, 72.16 41.03, 107.34 0.56 M16.15 105.46 C45.11 72.14, 74.08 38.82, 107.34 0.56 M26.12 106.18 C59.17 68.16, 92.22 30.14, 117.97 0.52 M26.12 106.18 C53.52 74.66, 80.93 43.14, 117.97 0.52 M36.09 106.9 C59.88 79.54, 83.66 52.18, 128.6 0.49 M36.09 106.9 C60.33 79.02, 84.57 51.14, 128.6 0.49 M46.73 106.87 C74.51 74.91, 102.29 42.95, 139.23 0.45 M46.73 106.87 C80.76 67.72, 114.79 28.57, 139.23 0.45 M57.36 106.83 C89.51 69.84, 121.67 32.85, 149.86 0.42 M57.36 106.83 C77 84.24, 96.64 61.64, 149.86 0.42 M67.99 106.8 C98.17 72.08, 128.35 37.35, 160.49 0.39 M67.99 106.8 C97.25 73.14, 126.51 39.47, 160.49 0.39 M78.62 106.76 C110.55 70.03, 142.48 33.3, 171.12 0.35 M78.62 106.76 C98.32 84.1, 118.02 61.43, 171.12 0.35 M89.25 106.73 C108.43 84.66, 127.62 62.59, 181.75 0.32 M89.25 106.73 C120.24 71.08, 151.23 35.42, 181.75 0.32 M99.88 106.7 C129.71 72.37, 159.55 38.05, 192.38 0.28 M99.88 106.7 C127.83 74.53, 155.79 42.37, 192.38 0.28 M110.51 106.66 C130.81 83.3, 151.12 59.94, 203.01 0.25 M110.51 106.66 C129.84 84.42, 149.18 62.17, 203.01 0.25 M121.14 106.63 C145.07 79.1, 169 51.57, 213.64 0.21 M121.14 106.63 C149.99 73.43, 178.85 40.23, 213.64 0.21 M131.77 106.59 C163.66 69.91, 195.55 33.22, 224.27 0.18 M131.77 106.59 C161.1 72.84, 190.44 39.1, 224.27 0.18 M142.4 106.56 C164.49 81.14, 186.59 55.71, 234.9 0.14 M142.4 106.56 C167.17 78.06, 191.95 49.56, 234.9 0.14 M153.03 106.52 C177.79 78.04, 202.55 49.56, 244.22 1.62 M153.03 106.52 C174.17 82.2, 195.32 57.87, 244.22 1.62 M163.66 106.49 C186.38 80.35, 209.09 54.22, 252.88 3.85 M163.66 106.49 C198.39 66.53, 233.13 26.57, 252.88 3.85 M174.29 106.45 C207.41 68.35, 240.53 30.25, 258.26 9.85 M174.29 106.45 C201.13 75.58, 227.97 44.7, 258.26 9.85 M184.92 106.42 C200.55 88.44, 216.18 70.45, 261.68 18.12 M184.92 106.42 C207.14 80.85, 229.37 55.28, 261.68 18.12 M195.55 106.39 C209.89 89.88, 224.23 73.38, 262.46 29.4 M195.55 106.39 C218.33 80.18, 241.1 53.98, 262.46 29.4 M206.18 106.35 C222.54 87.53, 238.9 68.7, 262.6 41.45 M206.18 106.35 C227.36 81.98, 248.55 57.6, 262.6 41.45 M216.15 107.07 C231.91 88.94, 247.68 70.8, 262.73 53.49 M216.15 107.07 C227.7 93.78, 239.25 80.49, 262.73 53.49 M226.78 107.04 C234.86 97.74, 242.94 88.45, 262.86 65.53 M226.78 107.04 C235.73 96.75, 244.67 86.45, 262.86 65.53 M238.07 106.25 C245.05 98.22, 252.03 90.18, 263 77.57 M238.07 106.25 C247.79 95.06, 257.51 83.88, 263 77.57 M250.66 103.95 C252.99 101.27, 255.32 98.59, 261.16 91.87 M250.66 103.95 C253.83 100.31, 256.99 96.68, 261.16 91.87 M6.33 99.41 C6.33 99.41, 6.33 99.41, 6.33 99.41 M6.33 99.41 C6.33 99.41, 6.33 99.41, 6.33 99.41 M25.92 105.84 C20.77 101.37, 15.62 96.89, 1.01 84.19 M25.92 105.84 C17.87 98.84, 9.81 91.84, 1.01 84.19 M37.96 105.71 C30.54 99.26, 23.12 92.81, 0.98 73.56 M37.96 105.71 C25.53 94.9, 13.1 84.09, 0.98 73.56 M50 105.57 C39.83 96.73, 29.66 87.89, 0.95 62.93 M50 105.57 C35.45 92.93, 20.91 80.28, 0.95 62.93 M62.04 105.44 C41.41 87.5, 20.77 69.56, 0.91 52.3 M62.04 105.44 C49.56 94.59, 37.07 83.73, 0.91 52.3 M74.08 105.31 C47.8 82.46, 21.52 59.62, 0.88 41.67 M74.08 105.31 C45.07 80.09, 16.05 54.86, 0.88 41.67 M86.88 105.83 C68.97 90.27, 51.07 74.7, 0.84 31.04 M86.88 105.83 C66.71 88.3, 46.54 70.77, 0.84 31.04 M98.92 105.7 C69.17 79.83, 39.41 53.97, 0.81 20.41 M98.92 105.7 C60.44 72.25, 21.96 38.79, 0.81 20.41 M110.96 105.57 C83.24 81.47, 55.53 57.38, 3.04 11.75 M110.96 105.57 C73.94 73.38, 36.91 41.2, 3.04 11.75 M123 105.43 C78.51 66.76, 34.02 28.08, 8.29 5.71 M123 105.43 C94.63 80.77, 66.25 56.1, 8.29 5.71 M135.04 105.3 C106.89 80.83, 78.75 56.36, 15.04 0.99 M135.04 105.3 C106.22 80.25, 77.4 55.19, 15.04 0.99 M147.84 105.82 C115.22 77.47, 82.6 49.11, 25.57 -0.46 M147.84 105.82 C108.88 71.95, 69.92 38.08, 25.57 -0.46 M159.88 105.69 C111.16 63.34, 62.44 20.98, 37.62 -0.59 M159.88 105.69 C131.81 81.29, 103.73 56.88, 37.62 -0.59 M171.92 105.56 C135.2 73.64, 98.48 41.72, 49.66 -0.73 M171.92 105.56 C128.29 67.63, 84.66 29.7, 49.66 -0.73 M183.96 105.42 C146.05 72.47, 108.14 39.51, 62.45 -0.2 M183.96 105.42 C158.58 83.36, 133.19 61.29, 62.45 -0.2 M196.76 105.95 C153.36 68.22, 109.96 30.5, 74.49 -0.34 M196.76 105.95 C159.3 73.39, 121.85 40.83, 74.49 -0.34 M208.8 105.81 C178.88 79.81, 148.96 53.8, 86.53 -0.47 M208.8 105.81 C175.86 77.18, 142.93 48.55, 86.53 -0.47 M220.84 105.68 C195.97 84.06, 171.1 62.44, 98.57 -0.6 M220.84 105.68 C183.51 73.23, 146.18 40.78, 98.57 -0.6 M232.88 105.55 C187.34 65.96, 141.81 26.38, 110.62 -0.74 M232.88 105.55 C196.68 74.08, 160.48 42.61, 110.62 -0.74 M244.92 105.41 C205.46 71.11, 166 36.81, 123.41 -0.21 M244.92 105.41 C210.2 75.24, 175.49 45.06, 123.41 -0.21 M253.19 102 C208.75 63.37, 164.32 24.75, 135.45 -0.35 M253.19 102 C209.88 64.35, 166.57 26.71, 135.45 -0.35 M258.44 95.96 C224.69 66.63, 190.94 37.29, 147.49 -0.48 M258.44 95.96 C217.03 59.97, 175.63 23.98, 147.49 -0.48 M262.17 88.61 C236.73 66.49, 211.28 44.37, 159.53 -0.61 M262.17 88.61 C225.51 56.74, 188.85 24.87, 159.53 -0.61 M262.89 78.64 C241.6 60.12, 220.3 41.61, 171.57 -0.75 M262.89 78.64 C236.66 55.84, 210.44 33.04, 171.57 -0.75 M262.86 68.01 C240.99 48.99, 219.11 29.98, 184.37 -0.22 M262.86 68.01 C236.92 45.46, 210.99 22.92, 184.37 -0.22 M262.83 57.38 C242.26 39.5, 221.7 21.63, 196.41 -0.36 M262.83 57.38 C240.18 37.69, 217.53 18.01, 196.41 -0.36 M262.04 46.09 C247.54 33.49, 233.05 20.89, 208.45 -0.49 M262.04 46.09 C243.41 29.9, 224.78 13.7, 208.45 -0.49 M262 35.46 C252.15 26.89, 242.29 18.33, 220.49 -0.62 M262 35.46 C251.98 26.75, 241.96 18.04, 220.49 -0.62 M261.97 24.83 C252.24 16.37, 242.51 7.92, 232.53 -0.76 M261.97 24.83 C254.24 18.11, 246.5 11.39, 232.53 -0.76 M260.42 12.89 C257.34 10.21, 254.26 7.53, 246.84 1.08 M260.42 12.89 C256.5 9.47, 252.57 6.06, 246.84 1.08" stroke="#ffc9c9" stroke-width="1" fill="none"></path><path d="M26.58 0 C103.09 0, 179.61 0, 236.03 0 M26.58 0 C77.99 0, 129.39 0, 236.03 0 M236.03 0 C253.75 0, 262.61 8.86, 262.61 26.58 M236.03 0 C253.75 0, 262.61 8.86, 262.61 26.58 M262.61 26.58 C262.61 43.52, 262.61 60.45, 262.61 79.75 M262.61 26.58 C262.61 45.23, 262.61 63.88, 262.61 79.75 M262.61 79.75 C262.61 97.47, 253.75 106.33, 236.03 106.33 M262.61 79.75 C262.61 97.47, 253.75 106.33, 236.03 106.33 M236.03 106.33 C169.97 106.33, 103.91 106.33, 26.58 106.33 M236.03 106.33 C170.12 106.33, 104.21 106.33, 26.58 106.33 M26.58 106.33 C8.86 106.33, 0 97.47, 0 79.75 M26.58 106.33 C8.86 106.33, 0 97.47, 0 79.75 M0 79.75 C0 64.48, 0 49.21, 0 26.58 M0 79.75 C0 67.61, 0 55.47, 0 26.58 M0 26.58 C0 8.86, 8.86 0, 26.58 0 M0 26.58 C0 8.86, 8.86 0, 26.58 0" stroke="#1e1e1e" stroke-width="2" fill="none"></path></g><g transform="translate(420.4644554952423 566.7160947867312) rotate(0 52.724998474121094 12)"><text x="52.724998474121094" y="0" font-family="Cascadia, Segoe UI Emoji" font-size="20px" fill="#1e1e1e" text-anchor="middle" style="white-space: pre;" direction="ltr" dominant-baseline="text-before-edge">Libraries</text></g><g stroke-linecap="round"><g transform="translate(345.91304748734706 633.4932823865862) rotate(0 -32.22187505873836 15.708164091134961)"><path d="M0 0 C-10.74 5.24, -53.7 26.18, -64.44 31.42 M0 0 C-10.74 5.24, -53.7 26.18, -64.44 31.42" stroke="#1e1e1e" stroke-width="2" fill="none"></path></g><g transform="translate(345.91304748734706 633.4932823865862) rotate(0 -32.22187505873836 15.708164091134961)"><path d="M-64.44 31.42 L-55 19.76 L-49.45 31.16 L-64.44 31.42" stroke="none" stroke-width="0" fill="#1e1e1e" fill-rule="evenodd"></path><path d="M-64.44 31.42 C-61.47 27.74, -58.49 24.07, -55 19.76 M-64.44 31.42 C-60.78 26.9, -57.12 22.38, -55 19.76 M-55 19.76 C-53.35 23.15, -51.7 26.53, -49.45 31.16 M-55 19.76 C-53.28 23.29, -51.57 26.81, -49.45 31.16 M-49.45 31.16 C-53.02 31.22, -56.6 31.28, -64.44 31.42 M-49.45 31.16 C-54.16 31.24, -58.88 31.32, -64.44 31.42 M-64.44 31.42 C-64.44 31.42, -64.44 31.42, -64.44 31.42 M-64.44 31.42 C-64.44 31.42, -64.44 31.42, -64.44 31.42" stroke="#1e1e1e" stroke-width="2" fill="none"></path></g></g><mask></mask></svg>